<mxfile host="app.diagrams.net" modified="2024-02-29T16:08:03.002Z" agent="Mozilla/5.0 (Windows NT 10.0; Win64; x64) AppleWebKit/537.36 (KHTML, like Gecko) Chrome/122.0.0.0 Safari/537.36" etag="KVYRlE9B4sigSMlFFWqn" version="23.1.8" type="github">
  <diagram name="Page-1" id="0RlflkpzbHmw4sK32c_u">
    <mxGraphModel dx="1344" dy="690" grid="1" gridSize="10" guides="1" tooltips="1" connect="1" arrows="1" fold="1" page="1" pageScale="1" pageWidth="850" pageHeight="1100" math="0" shadow="0">
      <root>
        <mxCell id="0" />
        <mxCell id="1" parent="0" />
        <mxCell id="n3VWqNk_zF_N2dm_stef-37" value="" style="rounded=0;whiteSpace=wrap;html=1;" vertex="1" parent="1">
          <mxGeometry x="620" y="390" width="130" height="70" as="geometry" />
        </mxCell>
        <mxCell id="n3VWqNk_zF_N2dm_stef-11" value="" style="rounded=0;whiteSpace=wrap;html=1;" vertex="1" parent="1">
          <mxGeometry x="730" y="10" width="110" height="280" as="geometry" />
        </mxCell>
        <mxCell id="n3VWqNk_zF_N2dm_stef-5" value="" style="rounded=0;whiteSpace=wrap;html=1;" vertex="1" parent="1">
          <mxGeometry x="266.5" y="300" width="300" height="130" as="geometry" />
        </mxCell>
        <mxCell id="n3VWqNk_zF_N2dm_stef-1" value="Travel Package" style="whiteSpace=wrap;html=1;aspect=fixed;" vertex="1" parent="1">
          <mxGeometry x="330" y="42" width="173" height="173" as="geometry" />
        </mxCell>
        <mxCell id="n3VWqNk_zF_N2dm_stef-3" value="" style="endArrow=classic;html=1;rounded=0;exitX=0.5;exitY=1;exitDx=0;exitDy=0;entryX=0.5;entryY=0;entryDx=0;entryDy=0;" edge="1" parent="1" source="n3VWqNk_zF_N2dm_stef-1" target="n3VWqNk_zF_N2dm_stef-5">
          <mxGeometry width="50" height="50" relative="1" as="geometry">
            <mxPoint x="400" y="280" as="sourcePoint" />
            <mxPoint x="425" y="270" as="targetPoint" />
          </mxGeometry>
        </mxCell>
        <mxCell id="n3VWqNk_zF_N2dm_stef-20" style="edgeStyle=orthogonalEdgeStyle;rounded=0;orthogonalLoop=1;jettySize=auto;html=1;exitX=0.5;exitY=1;exitDx=0;exitDy=0;entryX=0.5;entryY=1;entryDx=0;entryDy=0;" edge="1" parent="1" source="n3VWqNk_zF_N2dm_stef-4" target="n3VWqNk_zF_N2dm_stef-22">
          <mxGeometry relative="1" as="geometry">
            <mxPoint x="290" y="490" as="targetPoint" />
          </mxGeometry>
        </mxCell>
        <mxCell id="n3VWqNk_zF_N2dm_stef-4" value="Destination 1" style="whiteSpace=wrap;html=1;aspect=fixed;" vertex="1" parent="1">
          <mxGeometry x="281.5" y="325" width="80" height="80" as="geometry" />
        </mxCell>
        <mxCell id="n3VWqNk_zF_N2dm_stef-6" value="Destination 2" style="whiteSpace=wrap;html=1;aspect=fixed;" vertex="1" parent="1">
          <mxGeometry x="376.5" y="325" width="80" height="80" as="geometry" />
        </mxCell>
        <mxCell id="n3VWqNk_zF_N2dm_stef-7" value="Destination 3" style="whiteSpace=wrap;html=1;aspect=fixed;" vertex="1" parent="1">
          <mxGeometry x="471.5" y="325" width="80" height="80" as="geometry" />
        </mxCell>
        <mxCell id="n3VWqNk_zF_N2dm_stef-9" value="Itinerary" style="text;html=1;align=center;verticalAlign=middle;resizable=0;points=[];autosize=1;strokeColor=none;fillColor=none;" vertex="1" parent="1">
          <mxGeometry x="445" y="270" width="70" height="30" as="geometry" />
        </mxCell>
        <mxCell id="n3VWqNk_zF_N2dm_stef-12" value="Passenger 1" style="whiteSpace=wrap;html=1;aspect=fixed;" vertex="1" parent="1">
          <mxGeometry x="745" y="20" width="80" height="80" as="geometry" />
        </mxCell>
        <mxCell id="n3VWqNk_zF_N2dm_stef-13" value="Passenger 2" style="whiteSpace=wrap;html=1;aspect=fixed;" vertex="1" parent="1">
          <mxGeometry x="745" y="110" width="80" height="80" as="geometry" />
        </mxCell>
        <mxCell id="n3VWqNk_zF_N2dm_stef-16" value="Passenger 3" style="whiteSpace=wrap;html=1;aspect=fixed;" vertex="1" parent="1">
          <mxGeometry x="745" y="198" width="80" height="80" as="geometry" />
        </mxCell>
        <mxCell id="n3VWqNk_zF_N2dm_stef-17" value="" style="endArrow=classic;html=1;rounded=0;exitX=1;exitY=0.5;exitDx=0;exitDy=0;entryX=0;entryY=0.426;entryDx=0;entryDy=0;entryPerimeter=0;" edge="1" parent="1" source="n3VWqNk_zF_N2dm_stef-1" target="n3VWqNk_zF_N2dm_stef-11">
          <mxGeometry width="50" height="50" relative="1" as="geometry">
            <mxPoint x="330" y="140" as="sourcePoint" />
            <mxPoint x="380" y="90" as="targetPoint" />
          </mxGeometry>
        </mxCell>
        <mxCell id="n3VWqNk_zF_N2dm_stef-18" value="Passengers" style="text;html=1;align=center;verticalAlign=middle;resizable=0;points=[];autosize=1;strokeColor=none;fillColor=none;" vertex="1" parent="1">
          <mxGeometry x="500" y="150" width="90" height="30" as="geometry" />
        </mxCell>
        <mxCell id="n3VWqNk_zF_N2dm_stef-22" value="" style="rounded=0;whiteSpace=wrap;html=1;" vertex="1" parent="1">
          <mxGeometry x="800" y="390" width="250" height="70" as="geometry" />
        </mxCell>
        <mxCell id="n3VWqNk_zF_N2dm_stef-24" value="A1" style="whiteSpace=wrap;html=1;aspect=fixed;" vertex="1" parent="1">
          <mxGeometry x="810" y="400" width="50" height="50" as="geometry" />
        </mxCell>
        <mxCell id="n3VWqNk_zF_N2dm_stef-25" value="A2" style="whiteSpace=wrap;html=1;aspect=fixed;" vertex="1" parent="1">
          <mxGeometry x="870" y="400" width="50" height="50" as="geometry" />
        </mxCell>
        <mxCell id="n3VWqNk_zF_N2dm_stef-26" value="A3" style="whiteSpace=wrap;html=1;aspect=fixed;" vertex="1" parent="1">
          <mxGeometry x="930" y="400" width="50" height="50" as="geometry" />
        </mxCell>
        <mxCell id="n3VWqNk_zF_N2dm_stef-27" value="A4" style="whiteSpace=wrap;html=1;aspect=fixed;" vertex="1" parent="1">
          <mxGeometry x="990" y="400" width="50" height="50" as="geometry" />
        </mxCell>
        <mxCell id="n3VWqNk_zF_N2dm_stef-30" value="Activities" style="text;html=1;align=center;verticalAlign=middle;resizable=0;points=[];autosize=1;strokeColor=none;fillColor=none;" vertex="1" parent="1">
          <mxGeometry x="930" y="460" width="70" height="30" as="geometry" />
        </mxCell>
        <mxCell id="n3VWqNk_zF_N2dm_stef-31" style="edgeStyle=orthogonalEdgeStyle;rounded=0;orthogonalLoop=1;jettySize=auto;html=1;exitX=1;exitY=0.5;exitDx=0;exitDy=0;entryX=0.5;entryY=0;entryDx=0;entryDy=0;" edge="1" parent="1" source="n3VWqNk_zF_N2dm_stef-7" target="n3VWqNk_zF_N2dm_stef-37">
          <mxGeometry relative="1" as="geometry">
            <mxPoint x="555" y="490" as="targetPoint" />
            <mxPoint x="425" y="370" as="sourcePoint" />
          </mxGeometry>
        </mxCell>
        <mxCell id="n3VWqNk_zF_N2dm_stef-32" value="A5" style="whiteSpace=wrap;html=1;aspect=fixed;" vertex="1" parent="1">
          <mxGeometry x="630" y="400" width="50" height="50" as="geometry" />
        </mxCell>
        <mxCell id="n3VWqNk_zF_N2dm_stef-33" value="A6" style="whiteSpace=wrap;html=1;aspect=fixed;" vertex="1" parent="1">
          <mxGeometry x="690" y="400" width="50" height="50" as="geometry" />
        </mxCell>
        <mxCell id="n3VWqNk_zF_N2dm_stef-38" value="Activities" style="text;html=1;align=center;verticalAlign=middle;resizable=0;points=[];autosize=1;strokeColor=none;fillColor=none;" vertex="1" parent="1">
          <mxGeometry x="690" y="360" width="70" height="30" as="geometry" />
        </mxCell>
        <mxCell id="n3VWqNk_zF_N2dm_stef-41" value="Registers for activity" style="text;html=1;align=center;verticalAlign=middle;resizable=0;points=[];autosize=1;strokeColor=none;fillColor=none;" vertex="1" parent="1">
          <mxGeometry x="840" y="120" width="130" height="30" as="geometry" />
        </mxCell>
        <mxCell id="n3VWqNk_zF_N2dm_stef-45" style="edgeStyle=orthogonalEdgeStyle;rounded=0;orthogonalLoop=1;jettySize=auto;html=1;exitX=0;exitY=0.5;exitDx=0;exitDy=0;entryX=0.5;entryY=0;entryDx=0;entryDy=0;curved=1;" edge="1" parent="1" source="n3VWqNk_zF_N2dm_stef-16" target="n3VWqNk_zF_N2dm_stef-32">
          <mxGeometry relative="1" as="geometry" />
        </mxCell>
        <mxCell id="n3VWqNk_zF_N2dm_stef-46" style="edgeStyle=orthogonalEdgeStyle;rounded=0;orthogonalLoop=1;jettySize=auto;html=1;exitX=0;exitY=0.5;exitDx=0;exitDy=0;entryX=0.5;entryY=0;entryDx=0;entryDy=0;curved=1;" edge="1" parent="1" source="n3VWqNk_zF_N2dm_stef-13" target="n3VWqNk_zF_N2dm_stef-32">
          <mxGeometry relative="1" as="geometry">
            <mxPoint x="710" y="190" as="sourcePoint" />
            <mxPoint x="620" y="352" as="targetPoint" />
          </mxGeometry>
        </mxCell>
        <mxCell id="n3VWqNk_zF_N2dm_stef-47" style="edgeStyle=orthogonalEdgeStyle;rounded=0;orthogonalLoop=1;jettySize=auto;html=1;exitX=1;exitY=0.5;exitDx=0;exitDy=0;entryX=0.5;entryY=0;entryDx=0;entryDy=0;curved=1;" edge="1" parent="1" source="n3VWqNk_zF_N2dm_stef-12" target="n3VWqNk_zF_N2dm_stef-27">
          <mxGeometry relative="1" as="geometry">
            <mxPoint x="990" y="160" as="sourcePoint" />
            <mxPoint x="900" y="410" as="targetPoint" />
          </mxGeometry>
        </mxCell>
        <mxCell id="n3VWqNk_zF_N2dm_stef-48" style="edgeStyle=orthogonalEdgeStyle;rounded=0;orthogonalLoop=1;jettySize=auto;html=1;exitX=1;exitY=0.5;exitDx=0;exitDy=0;entryX=0.5;entryY=0;entryDx=0;entryDy=0;curved=1;" edge="1" parent="1" source="n3VWqNk_zF_N2dm_stef-13" target="n3VWqNk_zF_N2dm_stef-26">
          <mxGeometry relative="1" as="geometry">
            <mxPoint x="930" y="150" as="sourcePoint" />
            <mxPoint x="840" y="400" as="targetPoint" />
          </mxGeometry>
        </mxCell>
      </root>
    </mxGraphModel>
  </diagram>
</mxfile>
